<?xml version="1.0" encoding="UTF-8"?>
<svg width="64px" height="62px" viewBox="0 0 64 62" version="1.1" xmlns="http://www.w3.org/2000/svg" xmlns:xlink="http://www.w3.org/1999/xlink">
    <!-- Generator: Sketch 51.1 (57501) - http://www.bohemiancoding.com/sketch -->
    <title>Artboard 3 Copy 7</title>
    <desc>Created with Sketch.</desc>
    <defs></defs>
    <g id="Artboard-3-Copy-7" stroke="none" stroke-width="1" fill="none" fill-rule="evenodd">
        <path d="M0.495288889,16 C1.10445371,16.97137 1.24880039,19.8918871 0.440700734,21 C0.0948457797,20.1171106 -0.09714856,19.2086404 0.0499275264,18.248728 C0.165927356,17.4919657 0.344508606,16.7490927 0.495288889,16" id="Fill-7" fill="#000000"></path>
        <path d="M0.495288889,49 C1.10445371,49.97137 1.24880039,52.8918871 0.440700734,54 C0.0948457797,53.1171106 -0.09714856,52.2086404 0.0499275264,51.248728 C0.165927356,50.4919657 0.344508606,49.7490927 0.495288889,49" id="Fill-7" fill="#000000"></path>
        <path d="M0.537322231,8.5 C0.800580108,9.60363567 1.14012403,10.6457276 0.939215691,11.7854593 C0.861010019,12.2291245 0.690470207,12.6231125 0.464069201,13 C-0.183767084,11.761275 -0.147793243,9.87024986 0.537322231,8.5" id="Fill-9" fill="#000000"></path>
        <path d="M0.56658612,5.5 C-0.152041057,4.49964736 -0.191647167,2.57681037 0.473950909,1 C1.1349918,2.07826562 1.18106083,4.31691169 0.56658612,5.5" id="Fill-11" fill="#000000"></path>
        <path d="M0.528165433,36 C1.14986732,37.0588664 1.19909274,39.2910462 0.42329038,40.5 C-0.179219208,38.9263402 -0.133446788,37.2139065 0.528165433,36" id="Fill-15" fill="#000000"></path>
        <path d="M0.559721002,23.5 C1.11758356,24.8949757 1.19101824,26.1890742 0.514007265,27.5 C-0.179619061,26.4306578 -0.177897263,24.7283978 0.559721002,23.5" id="Fill-18" fill="#000000"></path>
        <path d="M0.522780049,30.5 C1.26279807,31.6446538 1.07507904,33.2505744 0.418239183,34.5 C-0.197238851,33.5073766 -0.109010401,31.6103103 0.522780049,30.5" id="Fill-20" fill="#000000"></path>
        <path d="M0.528165433,56.5 C1.14986732,57.5588664 1.19909274,59.7910462 0.42329038,61 C-0.179219208,59.4263402 -0.133446788,57.7139065 0.528165433,56.5" id="Fill-15" fill="#000000"></path>
        <path d="M0.559721002,43 C1.11758356,44.3949757 1.19101824,45.6890742 0.514007265,47 C-0.179619061,45.9306578 -0.177897263,44.2283978 0.559721002,43" id="Fill-18" fill="#000000"></path>
        <path d="M63.4952889,16 C64.1044537,16.97137 64.2488004,19.8918871 63.4407007,21 C63.0948458,20.1171106 62.9028514,19.2086404 63.0499275,18.248728 C63.1659274,17.4919657 63.3445086,16.7490927 63.4952889,16" id="Fill-7" fill="#000000"></path>
        <path d="M63.4952889,49 C64.1044537,49.97137 64.2488004,52.8918871 63.4407007,54 C63.0948458,53.1171106 62.9028514,52.2086404 63.0499275,51.248728 C63.1659274,50.4919657 63.3445086,49.7490927 63.4952889,49" id="Fill-7" fill="#000000"></path>
        <path d="M63.5373222,8.5 C63.8005801,9.60363567 64.140124,10.6457276 63.9392157,11.7854593 C63.86101,12.2291245 63.6904702,12.6231125 63.4640692,13 C62.8162329,11.761275 62.8522068,9.87024986 63.5373222,8.5" id="Fill-9" fill="#000000"></path>
        <path d="M63.5665861,5.5 C62.8479589,4.49964736 62.8083528,2.57681037 63.4739509,1 C64.1349918,2.07826562 64.1810608,4.31691169 63.5665861,5.5" id="Fill-11" fill="#000000"></path>
        <path d="M63.5281654,36 C64.1498673,37.0588664 64.1990927,39.2910462 63.4232904,40.5 C62.8207808,38.9263402 62.8665532,37.2139065 63.5281654,36" id="Fill-15" fill="#000000"></path>
        <path d="M63.559721,23.5 C64.1175836,24.8949757 64.1910182,26.1890742 63.5140073,27.5 C62.8203809,26.4306578 62.8221027,24.7283978 63.559721,23.5" id="Fill-18" fill="#000000"></path>
        <path d="M63.52278,30.5 C64.2627981,31.6446538 64.075079,33.2505744 63.4182392,34.5 C62.8027611,33.5073766 62.8909896,31.6103103 63.52278,30.5" id="Fill-20" fill="#000000"></path>
        <path d="M63.5281654,56.5 C64.1498673,57.5588664 64.1990927,59.7910462 63.4232904,61 C62.8207808,59.4263402 62.8665532,57.7139065 63.5281654,56.5" id="Fill-15" fill="#000000"></path>
        <path d="M63.559721,43 C64.1175836,44.3949757 64.1910182,45.6890742 63.5140073,47 C62.8203809,45.9306578 62.8221027,44.2283978 63.559721,43" id="Fill-18" fill="#000000"></path>
        <path d="M44.4952889,-2 C45.1044537,-1.02862995 45.2488004,1.89188709 44.4407007,3 C44.0948458,2.11711063 43.9028514,1.20864043 44.0499275,0.248727973 C44.1659274,-0.508034345 44.3445086,-1.25090725 44.4952889,-2" id="Fill-7" fill="#000000" transform="translate(44.500000, 0.500000) rotate(-270.000000) translate(-44.500000, -0.500000) "></path>
        <path d="M11.4952889,-2 C12.1044537,-1.02862995 12.2488004,1.89188709 11.4407007,3 C11.0948458,2.11711063 10.9028514,1.20864043 11.0499275,0.248727973 C11.1659274,-0.508034345 11.3445086,-1.25090725 11.4952889,-2" id="Fill-7" fill="#000000" transform="translate(11.500000, 0.500000) rotate(-270.000000) translate(-11.500000, -0.500000) "></path>
        <path d="M52.2873222,-1.75 C52.5505801,-0.646364329 52.890124,0.395727636 52.6892157,1.53545932 C52.61101,1.97912447 52.4404702,2.37311248 52.2140692,2.75 C51.5662329,1.51127499 51.6022068,-0.379750135 52.2873222,-1.75" id="Fill-9" fill="#000000" transform="translate(52.250000, 0.500000) rotate(-270.000000) translate(-52.250000, -0.500000) "></path>
        <path d="M59.8165861,2.75 C59.0979589,1.74964736 59.0583528,-0.173189629 59.7239509,-1.75 C60.3849918,-0.67173438 60.4310608,1.56691169 59.8165861,2.75" id="Fill-11" fill="#000000" transform="translate(59.750000, 0.500000) rotate(-270.000000) translate(-59.750000, -0.500000) "></path>
        <path d="M24.7781654,-1.75 C25.3998673,-0.691133627 25.4490927,1.54104623 24.6732904,2.75 C24.0707808,1.17634015 24.1165532,-0.536093487 24.7781654,-1.75" id="Fill-15" fill="#000000" transform="translate(24.750000, 0.500000) rotate(-270.000000) translate(-24.750000, -0.500000) "></path>
        <path d="M37.559721,-1.5 C38.1175836,-0.105024295 38.1910182,1.18907417 37.5140073,2.5 C36.8203809,1.43065777 36.8221027,-0.271602187 37.559721,-1.5" id="Fill-18" fill="#000000" transform="translate(37.500000, 0.500000) rotate(-270.000000) translate(-37.500000, -0.500000) "></path>
        <path d="M30.52278,-1.5 C31.2627981,-0.355346216 31.075079,1.25057441 30.4182392,2.5 C29.8027611,1.50737659 29.8909896,-0.389689699 30.52278,-1.5" id="Fill-20" fill="#000000" transform="translate(30.500000, 0.500000) rotate(-270.000000) translate(-30.500000, -0.500000) "></path>
        <path d="M4.27816543,-1.75 C4.89986732,-0.691133627 4.94909274,1.54104623 4.17329038,2.75 C3.57078079,1.17634015 3.61655321,-0.536093487 4.27816543,-1.75" id="Fill-15" fill="#000000" transform="translate(4.250000, 0.500000) rotate(-270.000000) translate(-4.250000, -0.500000) "></path>
        <path d="M18.059721,-1.5 C18.6175836,-0.105024295 18.6910182,1.18907417 18.0140073,2.5 C17.3203809,1.43065777 17.3221027,-0.271602187 18.059721,-1.5" id="Fill-18" fill="#000000" transform="translate(18.000000, 0.500000) rotate(-270.000000) translate(-18.000000, -0.500000) "></path>
        <path d="M44.4952889,59 C45.1044537,59.97137 45.2488004,62.8918871 44.4407007,64 C44.0948458,63.1171106 43.9028514,62.2086404 44.0499275,61.248728 C44.1659274,60.4919657 44.3445086,59.7490927 44.4952889,59" id="Fill-7" fill="#000000" transform="translate(44.500000, 61.500000) rotate(-270.000000) translate(-44.500000, -61.500000) "></path>
        <path d="M11.4952889,59 C12.1044537,59.97137 12.2488004,62.8918871 11.4407007,64 C11.0948458,63.1171106 10.9028514,62.2086404 11.0499275,61.248728 C11.1659274,60.4919657 11.3445086,59.7490927 11.4952889,59" id="Fill-7" fill="#000000" transform="translate(11.500000, 61.500000) rotate(-270.000000) translate(-11.500000, -61.500000) "></path>
        <path d="M52.2873222,59.25 C52.5505801,60.3536357 52.890124,61.3957276 52.6892157,62.5354593 C52.61101,62.9791245 52.4404702,63.3731125 52.2140692,63.75 C51.5662329,62.511275 51.6022068,60.6202499 52.2873222,59.25" id="Fill-9" fill="#000000" transform="translate(52.250000, 61.500000) rotate(-270.000000) translate(-52.250000, -61.500000) "></path>
        <path d="M59.8165861,63.75 C59.0979589,62.7496474 59.0583528,60.8268104 59.7239509,59.25 C60.3849918,60.3282656 60.4310608,62.5669117 59.8165861,63.75" id="Fill-11" fill="#000000" transform="translate(59.750000, 61.500000) rotate(-270.000000) translate(-59.750000, -61.500000) "></path>
        <path d="M24.7781654,59.25 C25.3998673,60.3088664 25.4490927,62.5410462 24.6732904,63.75 C24.0707808,62.1763402 24.1165532,60.4639065 24.7781654,59.25" id="Fill-15" fill="#000000" transform="translate(24.750000, 61.500000) rotate(-270.000000) translate(-24.750000, -61.500000) "></path>
        <path d="M37.559721,59.5 C38.1175836,60.8949757 38.1910182,62.1890742 37.5140073,63.5 C36.8203809,62.4306578 36.8221027,60.7283978 37.559721,59.5" id="Fill-18" fill="#000000" transform="translate(37.500000, 61.500000) rotate(-270.000000) translate(-37.500000, -61.500000) "></path>
        <path d="M30.52278,59.5 C31.2627981,60.6446538 31.075079,62.2505744 30.4182392,63.5 C29.8027611,62.5073766 29.8909896,60.6103103 30.52278,59.5" id="Fill-20" fill="#000000" transform="translate(30.500000, 61.500000) rotate(-270.000000) translate(-30.500000, -61.500000) "></path>
        <path d="M4.27816543,59.25 C4.89986732,60.3088664 4.94909274,62.5410462 4.17329038,63.75 C3.57078079,62.1763402 3.61655321,60.4639065 4.27816543,59.25" id="Fill-15" fill="#000000" transform="translate(4.250000, 61.500000) rotate(-270.000000) translate(-4.250000, -61.500000) "></path>
        <path d="M18.059721,59.5 C18.6175836,60.8949757 18.6910182,62.1890742 18.0140073,63.5 C17.3203809,62.4306578 17.3221027,60.7283978 18.059721,59.5" id="Fill-18" fill="#000000" transform="translate(18.000000, 61.500000) rotate(-270.000000) translate(-18.000000, -61.500000) "></path>
    </g>
</svg>